<mxfile host="app.diagrams.net" modified="2020-09-13T04:07:32.806Z" agent="5.0 (Macintosh; Intel Mac OS X 10_15_5) AppleWebKit/605.1.15 (KHTML, like Gecko) Version/13.1.1 Safari/605.1.15" etag="rybB2DsBV2KY5egEzpzw" version="13.6.10" type="github">
  <diagram id="b5HD3tNCvI8rddnHRsgq" name="Page-1">
    <mxGraphModel dx="2068" dy="1399" grid="1" gridSize="10" guides="1" tooltips="1" connect="1" arrows="1" fold="1" page="1" pageScale="1" pageWidth="827" pageHeight="1169" math="0" shadow="0">
      <root>
        <mxCell id="0" />
        <mxCell id="1" parent="0" />
        <mxCell id="Q95DYUeVSRi9fBIcmlv9-2" value="" style="rounded=0;whiteSpace=wrap;html=1;strokeWidth=2;fillColor=none;" vertex="1" parent="1">
          <mxGeometry x="85.5" y="280" width="416" height="320" as="geometry" />
        </mxCell>
        <mxCell id="Q95DYUeVSRi9fBIcmlv9-3" value="" style="rounded=0;whiteSpace=wrap;html=1;strokeWidth=2;fillColor=none;" vertex="1" parent="1">
          <mxGeometry x="550" y="280" width="416" height="320" as="geometry" />
        </mxCell>
        <mxCell id="Q95DYUeVSRi9fBIcmlv9-41" style="edgeStyle=orthogonalEdgeStyle;rounded=0;orthogonalLoop=1;jettySize=auto;html=1;exitX=0.5;exitY=1;exitDx=0;exitDy=0;entryX=0.5;entryY=0;entryDx=0;entryDy=0;strokeWidth=3;" edge="1" parent="1" source="Q95DYUeVSRi9fBIcmlv9-7" target="Q95DYUeVSRi9fBIcmlv9-22">
          <mxGeometry relative="1" as="geometry" />
        </mxCell>
        <mxCell id="Q95DYUeVSRi9fBIcmlv9-7" value="&lt;blockquote style=&quot;margin: 0 0 0 40px ; border: none ; padding: 0px&quot;&gt;&lt;/blockquote&gt;&lt;div style=&quot;text-align: center&quot;&gt;&lt;/div&gt;&lt;font color=&quot;#ffffff&quot;&gt;&lt;span&gt;&lt;br&gt;&lt;/span&gt;&lt;/font&gt;" style="rounded=0;whiteSpace=wrap;html=1;strokeWidth=2;strokeColor=none;fillColor=#2879C9;align=left;" vertex="1" parent="1">
          <mxGeometry x="101.5" y="373" width="197" height="212" as="geometry" />
        </mxCell>
        <mxCell id="Q95DYUeVSRi9fBIcmlv9-10" value="&lt;font style=&quot;font-size: 19px&quot;&gt;machines&lt;/font&gt;" style="text;html=1;strokeColor=none;fillColor=none;align=center;verticalAlign=middle;whiteSpace=wrap;rounded=0;" vertex="1" parent="1">
          <mxGeometry x="261.5" y="290" width="80" height="20" as="geometry" />
        </mxCell>
        <mxCell id="Q95DYUeVSRi9fBIcmlv9-12" value="&lt;font color=&quot;#ffffff&quot;&gt;&amp;lt;UUID&amp;gt;&lt;/font&gt;" style="text;html=1;strokeColor=none;fillColor=none;align=center;verticalAlign=middle;whiteSpace=wrap;rounded=0;" vertex="1" parent="1">
          <mxGeometry x="111.5" y="373" width="180" height="37" as="geometry" />
        </mxCell>
        <mxCell id="Q95DYUeVSRi9fBIcmlv9-13" value="&lt;div style=&quot;text-align: left&quot;&gt;&lt;font color=&quot;#ffffff&quot;&gt;&lt;span&gt;&lt;br&gt;&lt;/span&gt;&lt;/font&gt;&lt;/div&gt;&lt;font color=&quot;#ffffff&quot;&gt;&lt;div style=&quot;text-align: left&quot;&gt;&lt;br&gt;&lt;/div&gt;&lt;div style=&quot;text-align: left&quot;&gt;&lt;span style=&quot;font-size: 12px&quot;&gt;healthStatus: String&lt;/span&gt;&lt;/div&gt;&lt;div style=&quot;text-align: left&quot;&gt;&lt;span style=&quot;font-size: 12px&quot;&gt;name: String&lt;/span&gt;&lt;/div&gt;&lt;/font&gt;" style="text;html=1;strokeColor=none;fillColor=none;align=center;verticalAlign=middle;whiteSpace=wrap;rounded=0;" vertex="1" parent="1">
          <mxGeometry x="111.5" y="410" width="120" height="60" as="geometry" />
        </mxCell>
        <mxCell id="Q95DYUeVSRi9fBIcmlv9-14" value="" style="ellipse;whiteSpace=wrap;html=1;aspect=fixed;strokeWidth=2;fillColor=#2879C9;strokeColor=none;" vertex="1" parent="1">
          <mxGeometry x="360.5" y="469" width="20" height="20" as="geometry" />
        </mxCell>
        <mxCell id="Q95DYUeVSRi9fBIcmlv9-17" value="" style="ellipse;whiteSpace=wrap;html=1;aspect=fixed;strokeWidth=2;fillColor=#2879C9;strokeColor=none;" vertex="1" parent="1">
          <mxGeometry x="430.5" y="469" width="20" height="20" as="geometry" />
        </mxCell>
        <mxCell id="Q95DYUeVSRi9fBIcmlv9-18" value="" style="ellipse;whiteSpace=wrap;html=1;aspect=fixed;strokeWidth=2;fillColor=#2879C9;strokeColor=none;" vertex="1" parent="1">
          <mxGeometry x="394.5" y="469" width="20" height="20" as="geometry" />
        </mxCell>
        <mxCell id="Q95DYUeVSRi9fBIcmlv9-21" value="&lt;font style=&quot;font-size: 19px&quot;&gt;users&lt;/font&gt;" style="text;html=1;strokeColor=none;fillColor=none;align=center;verticalAlign=middle;whiteSpace=wrap;rounded=0;" vertex="1" parent="1">
          <mxGeometry x="718" y="290" width="80" height="20" as="geometry" />
        </mxCell>
        <mxCell id="Q95DYUeVSRi9fBIcmlv9-22" value="" style="rounded=0;whiteSpace=wrap;html=1;strokeWidth=2;fillColor=none;" vertex="1" parent="1">
          <mxGeometry x="-8" y="650" width="416" height="320" as="geometry" />
        </mxCell>
        <mxCell id="Q95DYUeVSRi9fBIcmlv9-23" value="" style="rounded=0;whiteSpace=wrap;html=1;strokeWidth=2;fillColor=none;" vertex="1" parent="1">
          <mxGeometry x="-99.5" y="1020" width="416" height="320" as="geometry" />
        </mxCell>
        <mxCell id="Q95DYUeVSRi9fBIcmlv9-42" style="edgeStyle=orthogonalEdgeStyle;rounded=0;orthogonalLoop=1;jettySize=auto;html=1;exitX=0.5;exitY=1;exitDx=0;exitDy=0;entryX=0.5;entryY=0;entryDx=0;entryDy=0;fontSize=16;strokeWidth=3;" edge="1" parent="1" source="Q95DYUeVSRi9fBIcmlv9-27" target="Q95DYUeVSRi9fBIcmlv9-23">
          <mxGeometry relative="1" as="geometry" />
        </mxCell>
        <mxCell id="Q95DYUeVSRi9fBIcmlv9-27" value="&lt;blockquote style=&quot;margin: 0 0 0 40px ; border: none ; padding: 0px&quot;&gt;&lt;/blockquote&gt;&lt;div style=&quot;text-align: center&quot;&gt;&lt;/div&gt;&lt;font color=&quot;#ffffff&quot;&gt;&lt;span&gt;&lt;br&gt;&lt;/span&gt;&lt;/font&gt;" style="rounded=0;whiteSpace=wrap;html=1;strokeWidth=2;strokeColor=none;align=left;fillColor=#990099;" vertex="1" parent="1">
          <mxGeometry x="10" y="740" width="197" height="212" as="geometry" />
        </mxCell>
        <mxCell id="Q95DYUeVSRi9fBIcmlv9-28" value="&lt;blockquote style=&quot;margin: 0 0 0 40px ; border: none ; padding: 0px&quot;&gt;&lt;/blockquote&gt;&lt;div style=&quot;text-align: center&quot;&gt;&lt;/div&gt;&lt;font color=&quot;#ffffff&quot;&gt;&lt;span&gt;&lt;br&gt;&lt;/span&gt;&lt;/font&gt;" style="rounded=0;whiteSpace=wrap;html=1;strokeWidth=2;strokeColor=none;align=left;fillColor=#CC0066;" vertex="1" parent="1">
          <mxGeometry x="-82.5" y="1110" width="197" height="212" as="geometry" />
        </mxCell>
        <mxCell id="Q95DYUeVSRi9fBIcmlv9-29" value="&lt;blockquote style=&quot;margin: 0 0 0 40px ; border: none ; padding: 0px&quot;&gt;&lt;/blockquote&gt;&lt;div style=&quot;text-align: center&quot;&gt;&lt;/div&gt;&lt;font color=&quot;#ffffff&quot;&gt;&lt;span&gt;&lt;br&gt;&lt;/span&gt;&lt;/font&gt;" style="rounded=0;whiteSpace=wrap;html=1;strokeWidth=2;strokeColor=none;align=left;fillColor=#009900;" vertex="1" parent="1">
          <mxGeometry x="570" y="373" width="197" height="212" as="geometry" />
        </mxCell>
        <mxCell id="Q95DYUeVSRi9fBIcmlv9-30" value="&lt;font color=&quot;#ffffff&quot;&gt;&lt;span&gt;&amp;lt;UUID&amp;gt;&lt;/span&gt;&lt;/font&gt;" style="text;html=1;strokeColor=none;fillColor=none;align=center;verticalAlign=middle;whiteSpace=wrap;rounded=0;" vertex="1" parent="1">
          <mxGeometry x="18.5" y="740" width="180" height="37" as="geometry" />
        </mxCell>
        <mxCell id="Q95DYUeVSRi9fBIcmlv9-31" value="&lt;font color=&quot;#ffffff&quot;&gt;&amp;lt;incremental index&amp;gt;&lt;/font&gt;" style="text;html=1;strokeColor=none;fillColor=none;align=center;verticalAlign=middle;whiteSpace=wrap;rounded=0;" vertex="1" parent="1">
          <mxGeometry x="-74" y="1110" width="180" height="37" as="geometry" />
        </mxCell>
        <mxCell id="Q95DYUeVSRi9fBIcmlv9-32" value="&lt;font color=&quot;#ffffff&quot;&gt;&amp;lt;UUID&amp;gt;&lt;/font&gt;" style="text;html=1;strokeColor=none;fillColor=none;align=center;verticalAlign=middle;whiteSpace=wrap;rounded=0;" vertex="1" parent="1">
          <mxGeometry x="578.5" y="373" width="180" height="37" as="geometry" />
        </mxCell>
        <mxCell id="Q95DYUeVSRi9fBIcmlv9-36" value="&lt;div style=&quot;text-align: left&quot;&gt;&lt;font color=&quot;#ffffff&quot;&gt;&lt;span&gt;&lt;br&gt;&lt;/span&gt;&lt;/font&gt;&lt;/div&gt;&lt;font color=&quot;#ffffff&quot;&gt;&lt;div style=&quot;text-align: left&quot;&gt;&lt;br&gt;&lt;/div&gt;&lt;div style=&quot;text-align: left&quot;&gt;&lt;span style=&quot;font-size: 12px&quot;&gt;healthStatus: String&lt;/span&gt;&lt;/div&gt;&lt;div style=&quot;text-align: left&quot;&gt;&lt;span style=&quot;font-size: 12px&quot;&gt;name: String&lt;/span&gt;&lt;/div&gt;&lt;div style=&quot;text-align: left&quot;&gt;&lt;span style=&quot;font-size: 12px&quot;&gt;threshold: Number&lt;/span&gt;&lt;/div&gt;&lt;div style=&quot;text-align: left&quot;&gt;unit: String&lt;/div&gt;&lt;/font&gt;" style="text;html=1;strokeColor=none;fillColor=none;align=center;verticalAlign=middle;whiteSpace=wrap;rounded=0;" vertex="1" parent="1">
          <mxGeometry x="18" y="780" width="120" height="80" as="geometry" />
        </mxCell>
        <mxCell id="Q95DYUeVSRi9fBIcmlv9-37" value="&lt;div&gt;&lt;font color=&quot;#ffffff&quot;&gt;&lt;span&gt;samples: Array of Map,&amp;nbsp;&lt;/span&gt;&lt;/font&gt;&lt;/div&gt;&lt;blockquote style=&quot;margin: 0 0 0 40px ; border: none ; padding: 0px&quot;&gt;&lt;div&gt;&lt;span style=&quot;color: rgb(255 , 255 , 255) ; font-size: 12px&quot;&gt;each Map conforms to:&lt;/span&gt;&lt;/div&gt;&lt;div&gt;&lt;span style=&quot;color: rgb(255 , 255 , 255) ; font-size: 12px&quot;&gt;{&lt;/span&gt;&lt;/div&gt;&lt;div&gt;&lt;span style=&quot;color: rgb(255 , 255 , 255) ; font-size: 12px&quot;&gt;&amp;nbsp; &amp;nbsp; timestamp: Timestamp&lt;/span&gt;&lt;/div&gt;&lt;div&gt;&lt;span style=&quot;color: rgb(255 , 255 , 255) ; font-size: 12px&quot;&gt;&amp;nbsp; &amp;nbsp; value: Number&lt;/span&gt;&lt;/div&gt;&lt;div&gt;&lt;span style=&quot;color: rgb(255 , 255 , 255) ; font-size: 12px&quot;&gt;}&lt;/span&gt;&lt;/div&gt;&lt;/blockquote&gt;" style="text;html=1;strokeColor=none;fillColor=none;align=left;verticalAlign=middle;whiteSpace=wrap;rounded=0;" vertex="1" parent="1">
          <mxGeometry x="-74" y="1150" width="184" height="120" as="geometry" />
        </mxCell>
        <mxCell id="Q95DYUeVSRi9fBIcmlv9-38" value="&lt;font color=&quot;#ffffff&quot;&gt;&lt;span&gt;email: String&lt;br&gt;firstName: String&lt;br&gt;surname: String&lt;br&gt;username: String&lt;br&gt;machinesMaintaining: &amp;nbsp;Array of &lt;br&gt;&lt;/span&gt;&lt;/font&gt;&lt;blockquote style=&quot;margin: 0 0 0 40px ; border: none ; padding: 0px&quot;&gt;&lt;font color=&quot;#ffffff&quot;&gt;&lt;span&gt;Reference to Machine&lt;/span&gt;&lt;/font&gt;&lt;/blockquote&gt;" style="text;html=1;strokeColor=none;fillColor=none;align=left;verticalAlign=middle;whiteSpace=wrap;rounded=0;" vertex="1" parent="1">
          <mxGeometry x="577.75" y="419" width="181.5" height="120" as="geometry" />
        </mxCell>
        <mxCell id="Q95DYUeVSRi9fBIcmlv9-39" value="&lt;font style=&quot;font-size: 19px&quot;&gt;sensors&lt;/font&gt;" style="text;html=1;strokeColor=none;fillColor=none;align=center;verticalAlign=middle;whiteSpace=wrap;rounded=0;" vertex="1" parent="1">
          <mxGeometry x="160" y="660" width="80" height="20" as="geometry" />
        </mxCell>
        <mxCell id="Q95DYUeVSRi9fBIcmlv9-40" value="&lt;font style=&quot;font-size: 19px&quot;&gt;sampleChunks&lt;/font&gt;" style="text;html=1;strokeColor=none;fillColor=none;align=center;verticalAlign=middle;whiteSpace=wrap;rounded=0;" vertex="1" parent="1">
          <mxGeometry x="42.5" y="1030" width="132" height="20" as="geometry" />
        </mxCell>
        <mxCell id="Q95DYUeVSRi9fBIcmlv9-48" value="" style="ellipse;whiteSpace=wrap;html=1;aspect=fixed;strokeWidth=2;strokeColor=none;fillColor=#990099;" vertex="1" parent="1">
          <mxGeometry x="331.5" y="830" width="20" height="20" as="geometry" />
        </mxCell>
        <mxCell id="Q95DYUeVSRi9fBIcmlv9-49" value="" style="ellipse;whiteSpace=wrap;html=1;aspect=fixed;strokeWidth=2;strokeColor=none;fillColor=#990099;" vertex="1" parent="1">
          <mxGeometry x="295.5" y="830" width="20" height="20" as="geometry" />
        </mxCell>
        <mxCell id="Q95DYUeVSRi9fBIcmlv9-50" value="" style="ellipse;whiteSpace=wrap;html=1;aspect=fixed;strokeWidth=2;strokeColor=none;fillColor=#990099;" vertex="1" parent="1">
          <mxGeometry x="261.5" y="830" width="20" height="20" as="geometry" />
        </mxCell>
        <mxCell id="Q95DYUeVSRi9fBIcmlv9-51" value="" style="ellipse;whiteSpace=wrap;html=1;aspect=fixed;strokeWidth=2;strokeColor=none;fillColor=#CC0066;" vertex="1" parent="1">
          <mxGeometry x="241.5" y="1190" width="20" height="20" as="geometry" />
        </mxCell>
        <mxCell id="Q95DYUeVSRi9fBIcmlv9-52" value="" style="ellipse;whiteSpace=wrap;html=1;aspect=fixed;strokeWidth=2;strokeColor=none;fillColor=#CC0066;" vertex="1" parent="1">
          <mxGeometry x="205.5" y="1190" width="20" height="20" as="geometry" />
        </mxCell>
        <mxCell id="Q95DYUeVSRi9fBIcmlv9-53" value="" style="ellipse;whiteSpace=wrap;html=1;aspect=fixed;strokeWidth=2;strokeColor=none;fillColor=#CC0066;" vertex="1" parent="1">
          <mxGeometry x="171.5" y="1190" width="20" height="20" as="geometry" />
        </mxCell>
        <mxCell id="Q95DYUeVSRi9fBIcmlv9-54" value="" style="ellipse;whiteSpace=wrap;html=1;aspect=fixed;strokeWidth=2;strokeColor=none;fillColor=#009900;" vertex="1" parent="1">
          <mxGeometry x="890" y="470" width="20" height="20" as="geometry" />
        </mxCell>
        <mxCell id="Q95DYUeVSRi9fBIcmlv9-55" value="" style="ellipse;whiteSpace=wrap;html=1;aspect=fixed;strokeWidth=2;strokeColor=none;fillColor=#009900;" vertex="1" parent="1">
          <mxGeometry x="854" y="470" width="20" height="20" as="geometry" />
        </mxCell>
        <mxCell id="Q95DYUeVSRi9fBIcmlv9-56" value="" style="ellipse;whiteSpace=wrap;html=1;aspect=fixed;strokeWidth=2;strokeColor=none;fillColor=#009900;" vertex="1" parent="1">
          <mxGeometry x="820" y="470" width="20" height="20" as="geometry" />
        </mxCell>
        <mxCell id="Q95DYUeVSRi9fBIcmlv9-58" value="" style="rounded=0;whiteSpace=wrap;html=1;strokeWidth=2;gradientColor=#ffffff;fillColor=none;dashed=1;" vertex="1" parent="1">
          <mxGeometry x="480" y="650" width="490" height="590" as="geometry" />
        </mxCell>
        <mxCell id="Q95DYUeVSRi9fBIcmlv9-59" value="key" style="text;html=1;strokeColor=none;fillColor=none;align=center;verticalAlign=middle;whiteSpace=wrap;rounded=0;dashed=1;fontSize=20;fontStyle=1" vertex="1" parent="1">
          <mxGeometry x="501.5" y="670" width="40" height="20" as="geometry" />
        </mxCell>
        <mxCell id="Q95DYUeVSRi9fBIcmlv9-60" value="" style="rounded=0;whiteSpace=wrap;html=1;strokeWidth=2;fillColor=none;" vertex="1" parent="1">
          <mxGeometry x="640.01" y="700" width="313.75" height="172" as="geometry" />
        </mxCell>
        <mxCell id="Q95DYUeVSRi9fBIcmlv9-61" value="collection" style="text;html=1;strokeColor=none;fillColor=none;align=center;verticalAlign=middle;whiteSpace=wrap;rounded=0;dashed=1;fontSize=20;" vertex="1" parent="1">
          <mxGeometry x="510" y="776" width="80" height="20" as="geometry" />
        </mxCell>
        <mxCell id="Q95DYUeVSRi9fBIcmlv9-62" value="name" style="text;html=1;strokeColor=none;fillColor=none;align=center;verticalAlign=middle;whiteSpace=wrap;rounded=0;dashed=1;fontSize=20;" vertex="1" parent="1">
          <mxGeometry x="756.89" y="710" width="80" height="20" as="geometry" />
        </mxCell>
        <mxCell id="Q95DYUeVSRi9fBIcmlv9-63" value="subcollection&lt;br&gt;of document" style="text;html=1;strokeColor=none;fillColor=none;align=center;verticalAlign=middle;whiteSpace=wrap;rounded=0;dashed=1;fontSize=20;" vertex="1" parent="1">
          <mxGeometry x="501.5" y="1150" width="119.25" height="60" as="geometry" />
        </mxCell>
        <mxCell id="Q95DYUeVSRi9fBIcmlv9-64" value="document" style="text;html=1;strokeColor=none;fillColor=none;align=center;verticalAlign=middle;whiteSpace=wrap;rounded=0;dashed=1;fontSize=20;" vertex="1" parent="1">
          <mxGeometry x="501.5" y="970" width="98.5" height="20" as="geometry" />
        </mxCell>
        <mxCell id="Q95DYUeVSRi9fBIcmlv9-65" value="&lt;blockquote style=&quot;margin: 0 0 0 40px ; border: none ; padding: 0px&quot;&gt;&lt;/blockquote&gt;&lt;div style=&quot;text-align: center&quot;&gt;&lt;/div&gt;&lt;font color=&quot;#ffffff&quot;&gt;&lt;span&gt;&lt;br&gt;&lt;/span&gt;&lt;/font&gt;" style="rounded=0;whiteSpace=wrap;html=1;strokeWidth=2;strokeColor=none;fillColor=#2879C9;align=left;" vertex="1" parent="1">
          <mxGeometry x="693" y="910" width="197" height="212" as="geometry" />
        </mxCell>
        <mxCell id="Q95DYUeVSRi9fBIcmlv9-66" value="" style="endArrow=classic;html=1;fontSize=20;strokeWidth=3;" edge="1" parent="1">
          <mxGeometry width="50" height="50" relative="1" as="geometry">
            <mxPoint x="790" y="1147" as="sourcePoint" />
            <mxPoint x="790" y="1227" as="targetPoint" />
          </mxGeometry>
        </mxCell>
        <mxCell id="Q95DYUeVSRi9fBIcmlv9-68" value="&lt;font color=&quot;#ffffff&quot;&gt;&lt;span&gt;&amp;lt;document ID type&amp;gt;&lt;/span&gt;&lt;/font&gt;" style="text;html=1;strokeColor=none;fillColor=none;align=center;verticalAlign=middle;whiteSpace=wrap;rounded=0;" vertex="1" parent="1">
          <mxGeometry x="701.5" y="910" width="180" height="37" as="geometry" />
        </mxCell>
        <mxCell id="Q95DYUeVSRi9fBIcmlv9-69" value="&lt;div&gt;&lt;font color=&quot;#ffffff&quot;&gt;&lt;span&gt;field: Type&lt;/span&gt;&lt;/font&gt;&lt;/div&gt;" style="text;html=1;strokeColor=none;fillColor=none;align=left;verticalAlign=middle;whiteSpace=wrap;rounded=0;" vertex="1" parent="1">
          <mxGeometry x="698" y="952" width="120" height="80" as="geometry" />
        </mxCell>
      </root>
    </mxGraphModel>
  </diagram>
</mxfile>
